<?xml version="1.0" encoding="utf-8"?>
<!-- Generator: Adobe Illustrator 19.2.1, SVG Export Plug-In . SVG Version: 6.00 Build 0)  -->
<svg version="1.1" id="Layer_1" xmlns="http://www.w3.org/2000/svg" xmlns:xlink="http://www.w3.org/1999/xlink" x="0px" y="0px"
	 viewBox="0 0 933 336" style="enable-background:new 0 0 933 336;" xml:space="preserve">
<style type="text/css">
	.st0{fill:none;stroke:#979797;stroke-linecap:square;}
	.st1{font-family:'Raleway-Bold';}
	.st2{font-size:35px;}
	.st3{font-family:'Raleway-Medium';}
	.st4{font-size:20px;}
	.st5{font-family:'Raleway-Regular';}
	.st6{font-size:16px;}
	.st7{font-family:'FontAwesome';}
	.st8{font-size:50px;}
	.st9{font-family:'ArialMT';}
	.st10{enable-background:new    ;}
	.st11{font-size:60px;}
</style>
<title>Group 13</title>
<desc>Created with Sketch.</desc>
<g id="Desktop" transform="translate(-1087.000000, -917.000000)">
	<g id="About" transform="translate(1024.000000, 0.000000)">
		<g id="Group-27">
			<g id="Group-14" transform="translate(63.000000, 775.000000)">
				<g id="Group-13" transform="translate(0.000000, 142.000000)">
					<path id="Line" class="st0" d="M466.5,0.5v335"/>
					<g id="Group-12" transform="translate(483.000000, 0.000000)">
						<text transform="matrix(1 0 0 1 122.1385 33)" class="st1 st2">Candidates</text>
						<g id="Group-5" transform="translate(4.000000, 85.000000)">
							<text transform="matrix(1 0 0 1 505.1599 21)" class="st9 st4"> </text>
						</g>
						<g id="Group-6" transform="translate(0.000000, 179.000000)">
							<text transform="matrix(1 0 0 1 61.3472 2)" class="st3 st4">No more blocks of texts.</text>
							<text transform="matrix(1 0 0 1 520.5781 21)" class="st9 st4"> </text>
							<text transform="matrix(1 0 0 1 61.3472 27)" class="st5 st6">Share the information recruiters really look for.</text>
							<text transform="matrix(1 0 0 1 -0.5002 22)" class="st7 st8"></text>
						</g>
						<g id="Group-7" transform="translate(4.000000, 269.000000)">
							<text transform="matrix(1 0 0 1 -1.4997 -157)" class="st7 st8"></text>
							<text transform="matrix(1 0 0 1 58.3477 -190)" class="st3 st4">No more paper handling.</text>
							<text transform="matrix(1 0 0 1 288.9561 1)" class="st9 st4"> </text>
							<text transform="matrix(1 0 0 1 58.3477 -166)" class="st10"><tspan x="0" y="0" class="st5 st6">Save your information on our database instead</tspan><tspan x="0" y="19.2" class="st5 st6">of printing multiple copies of your resume.</tspan></text>
						</g>
					</g>
					<g id="Group-11">
						<text transform="matrix(1 0 0 1 134.8765 33)" class="st1 st2">Recruiters</text>
						<g id="Group-8" transform="translate(0.000000, 87.000000)">
							<text transform="matrix(1 0 0 1 19.2142 26)" class="st7 st8"></text>
							<text transform="matrix(1 0 0 1 88.847 0)" class="st3 st4">No more stacks of resume.</text>
							<text transform="matrix(1 0 0 1 321.173 1)" class="st9 st4"> </text>
							<text transform="matrix(1 0 0 1 88.8469 26)" class="st5 st6">Have all of your candidates on one platform.</text>
						</g>
						<g id="Group-9" transform="translate(0.000000, 178.000000)">
							<text transform="matrix(1 0 0 1 19.2142 26)" class="st7 st8"></text>
							<text transform="matrix(1 0 0 1 88.8471 -5)" class="st3 st4">No more lost resumes.</text>
							<text transform="matrix(1 0 0 1 280.6023 3)" class="st9 st4"> </text>
							<text transform="matrix(1 0 0 1 88.8471 19)" class="st10"><tspan x="0" y="0" class="st5 st6">Retain profiles of all candidates you met by </tspan><tspan x="0" y="19.2" class="st5 st6">scanning their QR code.</tspan></text>
						</g>
						<g id="Group-10" transform="translate(0.000000, 269.000000)">
							<text transform="matrix(1 0 0 1 18.9999 26)" class="st7 st8"></text>
							<text transform="matrix(1 0 0 1 88.8469 -6)" class="st3 st4">No more endless scrolling.</text>
							<text transform="matrix(1 0 0 1 318.5569 1)" class="st9 st4"> </text>
							<text transform="matrix(1 0 0 1 88.8468 16)" class="st10"><tspan x="0" y="0" class="st5 st6">Query candidates that meets your need and </tspan><tspan x="0" y="19.2" class="st5 st6">export their information in your wanted format.</tspan></text>
						</g>
					</g>
				</g>
			</g>
		</g>
	</g>
</g>
<g>
	<defs>
		<rect id="SVGID_1_" x="-1008" y="-1357" width="3073" height="3275"/>
	</defs>
	<clipPath id="SVGID_2_">
		<use xlink:href="#SVGID_1_"  style="overflow:visible;"/>
	</clipPath>
</g>
<text transform="matrix(1 0 0 1 485.5001 299)" class="st7 st11"></text>
<text transform="matrix(1 0 0 1 544.8474 271)" class="st3 st4">Easily share your profile and resume.</text>
<text transform="matrix(1 0 0 1 544.8474 295)" class="st5 st6">Simply present your QR code to recruiters.</text>
<path class="st0" d="M461.3,335.5"/>
<path class="st0" d="M0,335.5"/>
<line class="st0" x1="365" y1="486.2" x2="363.8" y2="486.2"/>
<path class="st0" d="M933,335.5"/>
<path class="st0" d="M471.7,335.5"/>
</svg>
